<?xml version="1.0" encoding="UTF-8" standalone="no"?>
<svg width="800px" height="800px" viewBox="0 0 800 800" version="1.1" xmlns="http://www.w3.org/2000/svg" xmlns:xlink="http://www.w3.org/1999/xlink">
    <title>Play 90 Music logo</title>
    <defs>
        <linearGradient x1="84.6015625%" y1="15.1305038%" x2="16.2998047%" y2="87.4194716%" id="linearGradient-1">
            <stop stop-color="#ce0035" offset="0%"></stop>
            <stop stop-color="#81008d" offset="100%"></stop>
        </linearGradient>
        <linearGradient x1="82.5815147%" y1="21.2852296%" x2="0%" y2="93.5181904%" id="linearGradient-2">
            <stop stop-color="#bf0046" offset="0%"></stop>
            <stop stop-color="#ae0058" offset="100%"></stop>
        </linearGradient>
		<linearGradient x1="82.5815147%" y1="21.2852296%" x2="0%" y2="93.5181904%" id="linearGradient-3">
            <stop stop-color="#ffffff" offset="0%"></stop>
            <stop stop-color="#ffffff" offset="100%"></stop>
        </linearGradient>
    </defs>
    <g id="Page-1" stroke="none" stroke-width="1" fill="none" fill-rule="evenodd">
		<ellipse cx="400" cy="400" rx="399" ry="400" id="background" fill="url(#linearGradient-3)"/>
        <path d="M 364.341 0.572 C 273.694 8.785 187.77 47.763 124.335 109.446 C 86.26 146.468 63.239 177.439 41.62 220.726 C 20.975 262.062 8.527 303.22 1.97 351.824 C -0.657 371.304 -0.657 428.416 1.97 447.895 C 6.95 484.805 15.278 517.178 27.844 548.47 C 47.387 597.135 74.502 639.319 109.341 675.257 C 146.307 713.39 177.231 736.446 220.452 758.098 C 267.558 781.696 316.082 795.214 368.282 799.281 C 386.867 800.729 429.798 799.878 446.277 797.734 C 467.188 795.014 495.378 789.497 505.98 786.048 L 509.227 784.991 L 509.227 676.432 L 509.227 567.871 L 504.981 570.479 C 484.045 583.341 457.037 593.611 433.996 597.474 C 353.985 610.888 275.886 577.066 231.867 509.942 C 210.086 476.726 199.239 440.131 199.239 399.859 C 199.239 374.776 203.796 349.205 212.04 328.021 C 227.338 288.716 254.4 255.179 289.399 232.159 C 322.563 210.344 359.104 199.482 399.313 199.482 C 424.359 199.482 449.891 204.045 471.042 212.302 C 487.226 218.62 508.353 230.569 522.226 241.253 C 556.099 267.335 582.038 306.727 593.056 348.821 C 599.156 372.126 599.32 374.976 599.182 455.401 C 599.113 495.581 599.375 577.423 599.763 637.271 L 600.469 746.087 L 604.059 743.941 C 647.661 717.892 690.68 678.78 721.092 637.536 C 747.019 602.376 768.393 560.277 781.337 518.879 C 788.828 494.919 794.876 464.268 797.171 438.638 C 797.848 431.071 796.765 438.855 797.205 438.855 C 797.644 438.855 799.334 413.142 799.334 398.8 C 799.334 381.669 798.477 370.206 798.002 366.674 C 796.63 356.472 791.934 319.607 785.916 296.854 C 775.252 256.529 757.843 217.314 734.553 181.154 C 706.345 137.358 661.262 92.263 617.274 63.843 C 579.208 39.249 532.419 19.147 491.782 9.93 C 457.86 2.235 442.63 0.5 405.309 0.072 C 387.997 -0.126 369.561 0.099 364.341 0.572 M 0.061 399.859 C 0.061 414.445 0.201 420.412 0.371 413.119 C 0.542 405.826 0.542 393.893 0.371 386.6 C 0.201 379.306 0.061 385.274 0.061 399.859 Z" id="Circle" fill="url(#linearGradient-1)"></path>
        <path d="M356.585938,491.433598 C339.787109,480.611333 343.505859,465.253911 343.505859,465.253911 L343.505859,326.124999 C343.505859,326.124999 344.152343,307.884765 358.892578,300.947266 C373.632812,294.009766 385.795961,300.834544 400.021484,309.710937 C429.152343,330.792967 479.533203,369.273437 479.533203,369.273437 C479.533203,369.273437 525.412109,393.689822 479.533203,425.839054 C433.654297,457.988286 393.716797,487.490234 393.716797,487.490234 C393.716797,487.490234 373.384766,502.255864 356.585938,491.433598 Z" id="Triangle" fill="url(#linearGradient-2)"></path>
    </g>
</svg>